<svg version="1.1" viewBox="0 0 63.062 179.41" xmlns="http://www.w3.org/2000/svg" xmlns:xlink="http://www.w3.org/1999/xlink">
 <defs>
  <pattern id="pattern30" patternTransform="scale(.5)" preserveAspectRatio="xMidYMid" xlink:href="#RedButton"/>
  <pattern id="pattern27" patternTransform="scale(.5)" preserveAspectRatio="xMidYMid" xlink:href="#RedButton"/>
  <linearGradient id="linearGradient118861" x1="20" x2="80" y1="50" y2="50" gradientTransform="matrix(1.1667 0 0 1.1667 12.377 -58.333)" gradientUnits="userSpaceOnUse">
   <stop stop-color="#fc0000" offset="0"/>
   <stop offset="1"/>
  </linearGradient>
  <linearGradient id="linearGradient119595" x2="100" y2="100" gradientUnits="userSpaceOnUse">
   <stop offset="0"/>
   <stop stop-color="#f70000" offset="1"/>
  </linearGradient>
  <pattern id="RedButton" width="100" height="100" fill="none" patternTransform="scale(.5)" patternUnits="userSpaceOnUse" preserveAspectRatio="xMidYMid">
   <rect width="100" height="100" fill="url(#linearGradient119595)"/>
   <circle transform="rotate(45)" cx="70.711" cy="-6.388e-7" r="35" fill="url(#linearGradient118861)"/>
  </pattern>
  <radialGradient id="radialGradient8" cx="-8.8818e-16" cy="-289.9" r="8.9999" gradientTransform="matrix(1 0 0 3.2701 0 658.11)" gradientUnits="userSpaceOnUse">
   <stop stop-color="#dd5df5" offset="0"/>
   <stop stop-color="#dd4ef5" stop-opacity="0" offset="1"/>
  </radialGradient>
 </defs>
 <g transform="translate(31.531 319.33)">
  <g transform="matrix(2.3594 0 0 .70311 -.0015485 -73.285)" stroke-linecap="round">
   <g fill="#da1fe0">
    <path d="m-5.5-250.93v117.96" color="#000000" style="-inkscape-stroke:none"/>
    <path d="m-5.5-254.93c-2.2091 0-3.7821 2.2984-4 4-0.71313 5.5693 9.5416 9.3619 9.5 14.961-0.040624 5.4711-9.6133 9.0592-9.5 14.53 0.10658 5.1474 9.2648 8.2804 9.5 13.425 0.27087 5.9251-9.0385 10.148-9.5 16.065-0.63318 8.1183 8.7081 15.067 9.5066 23.176 0.40932 4.1565-0.6228 8.4567-2.4871 12.348-1.5469 3.2286-7.2444 5.257-7.0195 8.712 0.19456 2.9897 6.142 4.0788 7.0195 6.9883 1.1729 3.8889-5.2287 11.757-3.0195 11.757s4-1.7909 4-4v-117.96c0-2.2091-1.7909-4-4-4z" color="#000000" style="-inkscape-stroke:none"/>
   </g>
   <path d="m5.5-251.04v118.18" color="#000000" fill="#da1fe0" style="-inkscape-stroke:none"/>
   <path d="m5.5-255.04c-2.2091 0-4 1.7909-4 4v118.18c0 2.2091 1.7909 4 4 4s-4.2346-8.0242-3-11.972c0.89221-2.8532 6.7618-3.8645 7-6.8002 0.28543-3.5177-5.4468-5.6581-7-8.9548-1.8138-3.8501-2.8902-8.0824-2.4934-12.187 0.78381-8.1087 10.129-15.059 9.4934-23.176-0.46305-5.9174-9.7644-10.14-9.5-16.065 0.23031-5.1606 9.4037-8.3163 9.5-13.48 0.10174-5.4544-9.4442-9.0201-9.5-14.475-0.057568-5.631 10.228-9.4692 9.5-15.07-0.221-1.7013-1.7909-4-4-4z" color="#000000" fill="#421fe0" style="-inkscape-stroke:none"/>
  </g>
  <g transform="translate(-.075439 -64.274)" fill="url(#pattern27)">
   <path d="m14.516-90.64a14.516 14.516 0 0 1-14.516 14.516 14.516 14.516 0 0 1-14.516-14.516 14.516 14.516 0 0 1 14.516-14.516 14.516 14.516 0 0 1 14.516 14.516z" color="#000000" style="-inkscape-stroke:none"/>
   <path d="m0-105.64c-8.2785 0-15 6.7215-15 15 0 8.2785 6.7215 15 15 15s15-6.7215 15-15c-2e-6 -8.2785-6.7215-15-15-15zm0 0.9668c7.7559 0 14.033 6.2773 14.033 14.033 0 7.7559-6.2773 14.033-14.033 14.033s-14.033-6.2773-14.033-14.033c2e-6 -7.7559 6.2773-14.033 14.033-14.033z" color="#000000" style="-inkscape-stroke:none"/>
  </g>
  <g stroke-width=".99992">
   <path d="m-14.516-282.99c-9.3683 0-17.016 7.648-17.016 17.015s7.6473 17.013 17.016 17.013c6.1288 0 11.519-3.2731 14.516-8.1588-0.058043-0.0947-0.11369-0.19122-0.16992-0.28707-0.055193-0.0941-0.11063-0.18798-0.16406-0.28315-0.06216-0.11076-0.12386-0.22167-0.18359-0.33393-0.068665-0.129-0.1338-0.25964-0.19922-0.39056-0.062709-0.12557-0.12393-0.25156-0.18359-0.37885-0.068047-0.14507-0.13323-0.29213-0.19727-0.43938-0.044433-0.10225-0.088393-0.20527-0.13086-0.30855-0.048278-0.1173-0.094916-0.23487-0.14062-0.35345-0.039278-0.10197-0.079834-0.20369-0.11719-0.30659-0.011897-0.0328-0.021503-0.0668-0.033203-0.0996-0.058852-0.16522-0.1161-0.33243-0.16992-0.49992-0.032697-0.10184-0.064892-0.20394-0.095703-0.30659-0.043199-0.14379-0.083596-0.28819-0.12305-0.43353-0.025202-0.0929-0.050568-0.18571-0.074219-0.27924-0.058665-0.23183-0.11313-0.46563-0.16211-0.70107-0.00877-0.0422-0.01694-0.0847-0.025391-0.12693-0.040464-0.20228-0.076209-0.40646-0.10938-0.61123-0.011162-0.069-0.022879-0.13772-0.033203-0.20699-0.035082-0.23508-0.066522-0.4708-0.091797-0.70887-4.157e-4 -4e-3 -0.00154-8e-3 -0.00195-0.0117-0.00806-0.0765-0.0125-0.15368-0.019531-0.23044-0.016472-0.17965-0.030229-0.35973-0.041016-0.54093-0.00484-0.0813-0.00999-0.16245-0.013672-0.2441-0.011541-0.25574-0.019531-0.51285-0.019531-0.77135 0 6.665-5.3495 12.014-12.016 12.014-6.6661 0-12.016-5.3486-12.016-12.014s5.3495-12.016 12.016-12.016c6.6661 0 12.016 5.3506 12.016 12.016 0-0.2585 0.00799-0.51563 0.019531-0.77135 0.00368-0.0817 0.00883-0.16277 0.013672-0.24411 0.010787-0.18118 0.024543-0.36127 0.041016-0.54093 0.00703-0.0768 0.011475-0.15396 0.019531-0.23043 4.131e-4 -4e-3 0.00154-8e-3 0.00195-0.0117 0.025276-0.23805 0.056714-0.47379 0.091797-0.70886 0.010498-0.0705 0.021838-0.14074 0.033203-0.2109 0.031837-0.19627 0.066924-0.39185 0.10547-0.58585 0.010568-0.0533 0.020182-0.10703 0.03125-0.16012 0.048168-0.23073 0.10073-0.46015 0.1582-0.68739 0.023845-0.0944 0.050749-0.18746 0.076172-0.2812 0.039451-0.14534 0.079848-0.28975 0.12305-0.43353 0.031139-0.10376 0.062639-0.20757 0.095703-0.31049 0.041261-0.1283 0.086643-0.25579 0.13086-0.38276 0.024579-0.0707 0.046782-0.14263 0.072266-0.21285 0.041984-0.1157 0.088398-0.22917 0.13281-0.3437 0.040064-0.1032 0.079081-0.2063 0.12109-0.30854 0.043567-0.10612 0.089124-0.21131 0.13477-0.31636 0.064032-0.14724 0.12922-0.2943 0.19727-0.43937 0.067488-0.14399 0.13761-0.28589 0.20898-0.42767 0.053473-0.10616 0.10649-0.21147 0.16211-0.31635 0.065021-0.12269 0.13131-0.24427 0.19922-0.36518 0.052279-0.0931 0.10619-0.18534 0.16016-0.2773 0.056215-0.0958 0.1119-0.19243 0.16992-0.28706-2.9964-4.8864-8.3868-8.1608-14.516-8.1608z" fill="#421fe0"/>
   <path d="m14.516-282.99c-6.1288 0-11.519 3.2744-14.516 8.1608 1.5838 2.5828 2.5 5.6151 2.5 8.854 0-6.665 5.3495-12.016 12.016-12.016 6.6661 0 12.016 5.3506 12.016 12.016s-5.3495 12.014-12.016 12.014c-6.6661 0-12.016-5.3486-12.016-12.014 0 3.239-0.91621 6.2715-2.5 8.854 2.9964 4.8858 8.3868 8.1588 14.516 8.1588 9.3683 0 17.016-7.6461 17.016-17.013s-7.6473-17.015-17.016-17.015zm-14.516 25.869c-0.058039-0.0946-0.11369-0.19125-0.16992-0.28707 0.056233 0.0959 0.11188 0.19242 0.16992 0.28707zm0-17.708c-0.058024 0.0946-0.11371 0.19124-0.16992 0.28706 0.056232-0.0958 0.11188-0.19243 0.16992-0.28706zm-0.33008 0.56436c-0.067912 0.12091-0.1342 0.24249-0.19922 0.36518 0.064961-0.12251 0.13138-0.24444 0.19922-0.36518zm-0.36133 0.68153c-0.071374 0.14178-0.1415 0.28368-0.20898 0.42767 0.067557-0.14404 0.13754-0.28584 0.20898-0.42767zm-0.40625 0.86704c-0.045642 0.10505-0.091199 0.21024-0.13477 0.31636 0.043527-0.10592 0.089172-0.2115 0.13477-0.31636zm-0.25586 0.6249c-0.044414 0.11453-0.090829 0.228-0.13281 0.3437 0.042122-0.11598 0.088248-0.2289 0.13281-0.3437zm-0.33594 0.93931c-0.033064 0.10292-0.064564 0.20673-0.095703 0.31049 0.031205-0.10387 0.062569-0.20747 0.095703-0.31049zm-0.21875 0.74402c-0.025423 0.0938-0.052327 0.18683-0.076172 0.2812 0.02388-0.0944 0.050712-0.18742 0.076172-0.2812zm-0.23438 0.96859c-0.011068 0.0531-0.020682 0.10685-0.03125 0.16012 0.010584-0.0533 0.020166-0.10703 0.03125-0.16012zm-0.13672 0.74597c-0.011366 0.0702-0.022705 0.14045-0.033203 0.2109 0.010519-0.0705 0.021815-0.14071 0.033203-0.2109zm-0.12695 0.93148c-0.00806 0.0765-0.0125 0.15368-0.019531 0.23043 0.00704-0.0768 0.011465-0.15395 0.019531-0.23043zm-0.060547 0.77136c-0.00484 0.0814-0.00999 0.16246-0.013672 0.24411 0.00368-0.0816 0.00883-0.16286 0.013672-0.24411zm-0.013672 1.7868c0.00368 0.0817 0.00883 0.16277 0.013672 0.2441-0.00484-0.0813-0.00999-0.16254-0.013672-0.2441zm0.054687 0.78503c0.00703 0.0768 0.011475 0.15397 0.019531 0.23044-0.00807-0.0765-0.012492-0.15367-0.019531-0.23044zm0.11328 0.95102c0.010324 0.0693 0.022041 0.138 0.033203 0.20699-0.011167-0.069-0.022875-0.13778-0.033203-0.20699zm0.14258 0.81822c0.00845 0.0423 0.016625 0.0848 0.025391 0.12693-0.00877-0.0421-0.01694-0.0847-0.025391-0.12693zm0.1875 0.828c0.023651 0.0935 0.049017 0.18632 0.074219 0.27924-0.025251-0.093-0.050523-0.18561-0.074219-0.27924zm0.19727 0.71277c0.030812 0.10265 0.063006 0.20475 0.095703 0.30659-0.032732-0.10185-0.064857-0.20393-0.095703-0.30659zm0.29883 0.9061c0.037354 0.1029 0.07791 0.20462 0.11719 0.30659-0.039462-0.10238-0.079666-0.20328-0.11719-0.30659zm0.25781 0.66004c0.042467 0.10328 0.086426 0.2063 0.13086 0.30855-0.044439-0.10219-0.088384-0.20533-0.13086-0.30855zm0.32812 0.74793c0.059668 0.12729 0.12088 0.25328 0.18359 0.37885-0.06266-0.12541-0.12396-0.25172-0.18359-0.37885zm0.38281 0.76941c0.059735 0.11226 0.12143 0.22317 0.18359 0.33393-0.062289-0.11096-0.12373-0.22147-0.18359-0.33393z" fill="#da1fe0"/>
   <path d="m0-274.83c-1.5841 2.5828-2.5 5.6151-2.5 8.854 0 3.239 0.9159 6.2715 2.5 8.854 1.5838-2.5825 2.5-5.615 2.5-8.854 0-3.2389-0.91624-6.2713-2.5-8.854z" fill="#421fe0" fill-opacity=".47608"/>
  </g>
  <path d="m5e-7 -316.46c-4.7522 7.7483-7.5 16.845-7.5 26.562 0 9.717 2.7477 18.815 7.5 26.562 4.7514-7.7474 7.5-16.845 7.5-26.562 0-9.7168-2.7487-18.814-7.5-26.562z" color="#000000" fill="url(#pattern30)" stroke="url(#radialGradient8)" stroke-width="2.9998" style="-inkscape-stroke:none"/>
 </g>
</svg>
