<?xml version="1.0" encoding="UTF-8" standalone="no"?>
<!-- Created with Inkscape (http://www.inkscape.org/) -->

<svg
   width="360"
   height="640"
   viewBox="0 0 360 640"
   version="1.1"
   id="svg1"
   inkscape:version="1.3.2 (091e20e, 2023-11-25, custom)"
   sodipodi:docname="clockpart2.svg"
   xmlns:inkscape="http://www.inkscape.org/namespaces/inkscape"
   xmlns:sodipodi="http://sodipodi.sourceforge.net/DTD/sodipodi-0.dtd"
   xmlns="http://www.w3.org/2000/svg"
   xmlns:svg="http://www.w3.org/2000/svg">
  <sodipodi:namedview
     id="namedview1"
     pagecolor="#ffffff"
     bordercolor="#cccccc"
     borderopacity="1"
     inkscape:showpageshadow="0"
     inkscape:pageopacity="1"
     inkscape:pagecheckerboard="0"
     inkscape:deskcolor="#d1d1d1"
     inkscape:document-units="px"
     inkscape:zoom="1.8649941"
     inkscape:cx="37.801728"
     inkscape:cy="-134.31678"
     inkscape:window-width="1920"
     inkscape:window-height="1017"
     inkscape:window-x="-8"
     inkscape:window-y="-8"
     inkscape:window-maximized="1"
     inkscape:current-layer="layer2" />
  <defs
     id="defs1">
    <linearGradient
       id="swatch3">
      <stop
         style="stop-color:#b1c700;stop-opacity:1;"
         offset="0"
         id="stop3" />
    </linearGradient>
    <linearGradient
       id="swatch2"
       inkscape:swatch="solid">
      <stop
         style="stop-color:#000000;stop-opacity:1;"
         offset="0"
         id="stop2" />
    </linearGradient>
  </defs>
  <g
     inkscape:label="Layer 1"
     inkscape:groupmode="layer"
     id="layer1">
    <g
       id="g23"
       transform="matrix(1,0,0,1.2442573,-0.5361945,61.316053)">
      <g
         id="path22">
        <path
           style="color:#000000;fill:#da1fe0;stroke-linecap:round;-inkscape-stroke:none"
           d="m -5.5000004,-250.9278 v 117.96106"
           id="path26" />
        <path
           style="color:#000000;fill:#da1fe0;stroke-linecap:round;-inkscape-stroke:none"
           d="m -5.5,-254.92773 c -2.209139,0 -4,1.79086 -4,4 L 23.194426,-191.94727 -9.5,-132.9668 c -1.118663,2.01806 1.790861,4 4,4 2.209139,0 4,-1.79086 4,-4 v -117.96093 c 0,-2.20914 -1.790861,-4 -4,-4 z"
           id="path27"
           sodipodi:nodetypes="sscsssss" />
      </g>
      <g
         id="path23">
        <path
           style="color:#000000;fill:#da1fe0;stroke-linecap:round;-inkscape-stroke:none"
           d="M 5.5000004,-251.03784 V -132.8567"
           id="path28" />
        <path
           style="color:#000000;fill:#421fe0;stroke-linecap:round;-inkscape-stroke:none"
           d="m 5.5,-255.03711 c -2.209139,0 -4,1.79086 -4,4 v 118.17969 c 0,2.20914 1.790861,4 4,4 2.209139,0 4,-1.79086 4,-4 L -22.122037,-191.94727 9.5,-251.03711 c 1.086093,-2.0295 -1.790861,-4 -4,-4 z"
           id="path29"
           sodipodi:nodetypes="ssssscss" />
      </g>
    </g>
  </g>
  <g
     inkscape:groupmode="layer"
     id="layer2"
     inkscape:label="Layer 2">
    <g
       id="path7">
      <path
         style="color:#000000;fill:#000000;-inkscape-stroke:none"
         d="M 14.516474,-90.640221 A 14.516474,14.516473 0 0 1 0,-76.123748 14.516474,14.516473 0 0 1 -14.516474,-90.640221 14.516474,14.516473 0 0 1 0,-105.15669 14.516474,14.516473 0 0 1 14.516474,-90.640221 Z"
         id="path24" />
      <path
         style="color:#000000;fill:#da1fe0;-inkscape-stroke:none"
         d="m 0,-105.64063 c -8.278535,0 -14.999998,6.721471 -15,15.000005 0,8.278536 6.7214634,15 15,15 8.2785366,0 15,-6.721464 15,-15 -2e-6,-8.278534 -6.721465,-15.000005 -15,-15.000005 z m 0,0.9668 c 7.7559003,0 14.033201,6.277305 14.033203,14.033205 0,7.755901 -6.2773012,14.033203 -14.033203,14.033203 -7.7559018,0 -14.033203,-6.277302 -14.033203,-14.033203 2e-6,-7.7559 6.2773027,-14.033205 14.033203,-14.033205 z"
         id="path25" />
    </g>
    <g
       id="g20"
       transform="matrix(1,0,0,0.99983603,0,-0.05189066)">
      <path
         d="m -14.515625,-282.98047 c -9.368299,0 -17.015625,7.64928 -17.015625,17.01758 0,9.3683 7.647326,17.01562 17.015625,17.01562 6.1287923,0 11.5192576,-3.2736 14.515625,-8.16015 -0.05804338,-0.0947 -0.11368863,-0.19125 -0.16992187,-0.28711 -0.0551928,-0.0941 -0.11063288,-0.18802 -0.16406251,-0.2832 -0.0621601,-0.11078 -0.12385846,-0.22171 -0.18359374,-0.33399 -0.0686646,-0.12902 -0.13380367,-0.25968 -0.19921875,-0.39062 -0.0627091,-0.12559 -0.12392591,-0.2516 -0.18359376,-0.37891 -0.0680472,-0.1451 -0.13323327,-0.29218 -0.19726557,-0.43945 -0.044433,-0.10227 -0.088393,-0.20531 -0.1308594,-0.3086 -0.048278,-0.11732 -0.094916,-0.23491 -0.140625,-0.35351 -0.039278,-0.10199 -0.079834,-0.20373 -0.1171875,-0.30664 -0.011897,-0.0328 -0.021503,-0.0668 -0.033203,-0.0996 -0.058852,-0.16525 -0.1160957,-0.33248 -0.1699219,-0.5 -0.032697,-0.10186 -0.064892,-0.20397 -0.095703,-0.30664 -0.043199,-0.14381 -0.083596,-0.28824 -0.1230469,-0.4336 -0.025202,-0.0929 -0.050568,-0.18574 -0.074219,-0.27929 -0.058665,-0.23187 -0.1131316,-0.4657 -0.1621094,-0.70118 -0.00877,-0.0422 -0.01694,-0.0847 -0.025391,-0.12695 -0.040464,-0.20232 -0.076209,-0.40653 -0.109375,-0.61133 -0.011162,-0.069 -0.022879,-0.13775 -0.033203,-0.20703 -0.035082,-0.23512 -0.066522,-0.47088 -0.091797,-0.70898 -4.157e-4,-0.004 -0.00154,-0.008 -0.00195,-0.0117 -0.00806,-0.0765 -0.0125,-0.1537 -0.019531,-0.23047 -0.016472,-0.17968 -0.030229,-0.35979 -0.041016,-0.54102 -0.00484,-0.0813 -0.00999,-0.16248 -0.013672,-0.24414 -0.011541,-0.25578 -0.019531,-0.51294 -0.019531,-0.77148 0,6.66611 -5.3495181,12.01562 -12.0156247,12.01562 -6.666107,0 -12.015625,-5.34951 -12.015625,-12.01562 0,-6.66611 5.349518,-12.01758 12.015625,-12.01758 6.6661066,0 12.0156247,5.35147 12.0156247,12.01758 0,-0.25854 0.00799,-0.51571 0.019531,-0.77148 0.00368,-0.0817 0.00883,-0.16279 0.013672,-0.24415 0.010787,-0.18121 0.024543,-0.36133 0.041016,-0.54101 0.00703,-0.0768 0.011475,-0.15399 0.019531,-0.23047 4.131e-4,-0.004 0.00154,-0.008 0.00195,-0.0117 0.025276,-0.23809 0.056714,-0.47387 0.091797,-0.70898 0.010498,-0.0705 0.021838,-0.14076 0.033203,-0.21094 0.031837,-0.1963 0.066924,-0.39191 0.1054688,-0.58594 0.010568,-0.0533 0.020182,-0.10705 0.03125,-0.16015 0.048168,-0.23077 0.100728,-0.46022 0.1582031,-0.6875 0.023845,-0.0944 0.050749,-0.18749 0.076172,-0.28125 0.039451,-0.14536 0.079848,-0.28979 0.1230469,-0.4336 0.031139,-0.10377 0.062639,-0.2076 0.095703,-0.31054 0.041261,-0.12832 0.086643,-0.25583 0.1308594,-0.38282 0.024579,-0.0707 0.046782,-0.14265 0.072266,-0.21289 0.041984,-0.11571 0.088398,-0.2292 0.1328125,-0.34375 0.040064,-0.10322 0.079081,-0.20634 0.1210937,-0.30859 0.043567,-0.10614 0.089124,-0.21135 0.1347657,-0.31641 0.064032,-0.14727 0.12921889,-0.29435 0.19726557,-0.43945 0.0674875,-0.14401 0.13761027,-0.28593 0.20898438,-0.42774 0.0534729,-0.10617 0.10649388,-0.2115 0.16210938,-0.3164 0.0650209,-0.12271 0.1313064,-0.24431 0.19921874,-0.36524 0.0522789,-0.0931 0.10619211,-0.18537 0.16015626,-0.27734 0.056215,-0.0958 0.11189789,-0.19247 0.16992187,-0.28711 -2.9963561,-4.88718 -8.3867942,-8.16211 -14.515625,-8.16211 z"
         style="fill:#421fe0"
         id="path19" />
      <path
         d="m 14.515625,-282.98047 c -6.1288307,0 -11.5192689,3.27493 -14.515625,8.16211 1.5837568,2.58318 2.5,5.61601 2.5,8.85547 0,-6.66611 5.3495182,-12.01758 12.015625,-12.01758 6.666107,0 12.015625,5.35147 12.015625,12.01758 0,6.66611 -5.349518,12.01562 -12.015625,12.01562 -6.6661068,0 -12.015625,-5.34951 -12.015625,-12.01562 0,3.2395 -0.9162082,6.27257 -2.5,8.85547 2.9963674,4.88655 8.3868328,8.16015 14.515625,8.16015 9.368299,0 17.015625,-7.64732 17.015625,-17.01562 0,-9.3683 -7.647326,-17.01758 -17.015625,-17.01758 z M 0,-257.10742 c -0.05803928,-0.0946 -0.11368874,-0.19128 -0.16992187,-0.28711 0.0562333,0.0959 0.11187843,0.19245 0.16992187,0.28711 z m 0,-17.71094 c -0.05802403,0.0946 -0.11370681,0.19127 -0.16992187,0.28711 0.0562321,-0.0958 0.11188384,-0.19247 0.16992187,-0.28711 z m -0.33007813,0.56445 c -0.0679124,0.12093 -0.13419775,0.24253 -0.19921874,0.36524 0.0649607,-0.12253 0.13137863,-0.24448 0.19921874,-0.36524 z m -0.36132812,0.68164 c -0.0713742,0.14181 -0.14149676,0.28373 -0.20898438,0.42774 0.067557,-0.14406 0.13754111,-0.28588 0.20898438,-0.42774 z m -0.40624995,0.86719 c -0.045642,0.10506 -0.091199,0.21027 -0.1347657,0.31641 0.043527,-0.10594 0.089172,-0.21154 0.1347657,-0.31641 z m -0.2558594,0.625 c -0.044414,0.11455 -0.090829,0.22804 -0.1328125,0.34375 0.042122,-0.11599 0.088248,-0.22893 0.1328125,-0.34375 z m -0.3359375,0.93946 c -0.033064,0.10294 -0.064564,0.20677 -0.095703,0.31054 0.031205,-0.10388 0.062569,-0.2075 0.095703,-0.31054 z m -0.21875,0.74414 c -0.025423,0.0938 -0.052327,0.18686 -0.076172,0.28125 0.02388,-0.0944 0.050712,-0.18745 0.076172,-0.28125 z m -0.234375,0.96875 c -0.011068,0.0531 -0.020682,0.10687 -0.03125,0.16015 0.010584,-0.0533 0.020166,-0.10705 0.03125,-0.16015 z m -0.1367188,0.74609 c -0.011366,0.0702 -0.022705,0.14048 -0.033203,0.21094 0.010519,-0.0705 0.021815,-0.14073 0.033203,-0.21094 z M -2.40625,-267.75 c -0.00806,0.0765 -0.0125,0.1537 -0.019531,0.23047 0.00704,-0.0768 0.011465,-0.15398 0.019531,-0.23047 z m -0.060547,0.77148 c -0.00484,0.0814 -0.00999,0.16249 -0.013672,0.24415 0.00368,-0.0816 0.00883,-0.16288 0.013672,-0.24415 z m -0.013672,1.78711 c 0.00368,0.0817 0.00883,0.16279 0.013672,0.24414 -0.00484,-0.0813 -0.00999,-0.16257 -0.013672,-0.24414 z m 0.054687,0.78516 c 0.00703,0.0768 0.011475,0.15399 0.019531,0.23047 -0.00807,-0.0765 -0.012492,-0.15369 -0.019531,-0.23047 z m 0.1132813,0.95117 c 0.010324,0.0693 0.022041,0.13802 0.033203,0.20703 -0.011167,-0.069 -0.022875,-0.13781 -0.033203,-0.20703 z m 0.1425781,0.81836 c 0.00845,0.0423 0.016625,0.0848 0.025391,0.12695 -0.00877,-0.0421 -0.01694,-0.0847 -0.025391,-0.12695 z m 0.1875,0.82813 c 0.023651,0.0935 0.049017,0.18635 0.074219,0.27929 -0.025251,-0.093 -0.050523,-0.18564 -0.074219,-0.27929 z m 0.1972657,0.71289 c 0.030812,0.10267 0.063006,0.20478 0.095703,0.30664 -0.032732,-0.10187 -0.064857,-0.20396 -0.095703,-0.30664 z m 0.2988281,0.90625 c 0.037354,0.10291 0.07791,0.20465 0.1171875,0.30664 -0.039462,-0.1024 -0.079666,-0.20332 -0.1171875,-0.30664 z m 0.2578125,0.66015 c 0.042467,0.10329 0.086426,0.20633 0.1308594,0.3086 -0.044439,-0.10221 -0.088384,-0.20537 -0.1308594,-0.3086 z m 0.32812497,0.74805 c 0.0596679,0.12731 0.12088462,0.25332 0.18359376,0.37891 -0.0626603,-0.12543 -0.12396451,-0.25176 -0.18359376,-0.37891 z m 0.38281251,0.76953 c 0.0597353,0.11228 0.12143357,0.22321 0.18359374,0.33399 -0.0622893,-0.11098 -0.1237348,-0.22151 -0.18359374,-0.33399 z"
         style="fill:#da1fe0"
         id="path18" />
      <path
         d="m 0,-274.81836 c -1.5840634,2.58318 -2.5,5.616 -2.5,8.85547 0,3.23951 0.9159026,6.27257 2.5,8.85547 1.5837934,-2.5829 2.5,-5.61596 2.5,-8.85547 0,-3.23947 -0.9162416,-6.27229 -2.5,-8.85547 z"
         style="fill:#421fe0;fill-opacity:0.476077"
         id="path17" />
      <path
         id="path15"
         style="color:#000000;fill:#000000;fill-opacity:1;stroke-width:3;-inkscape-stroke:none"
         d="m 5e-7,-316.45834 c -4.7521802,7.74956 -7.5000009,16.848 -7.5000009,26.56642 0,9.71854 2.747701,18.8177 7.5000008,26.56642 4.7514,-7.7487 7.5,-16.84788 7.5,-26.56642 0,-9.7184 -2.74872,-18.81686 -7.4999999,-26.56642 z" />
    </g>
  </g>
</svg>
