<?xml version="1.0" encoding="UTF-8" standalone="no"?>
<!-- Created with Inkscape (http://www.inkscape.org/) -->

<svg
   width="63.0625"
   height="179.41304"
   viewBox="0 0 63.0625 179.41304"
   version="1.1"
   id="svg1"
   xmlns:xlink="http://www.w3.org/1999/xlink"
   xmlns="http://www.w3.org/2000/svg"
   xmlns:svg="http://www.w3.org/2000/svg">
  <defs
     id="defs1">
    <pattern
       xlink:href="#RedButton"
       preserveAspectRatio="xMidYMid"
       id="pattern30"
       patternTransform="scale(0.5)" />
    <pattern
       xlink:href="#RedButton"
       preserveAspectRatio="xMidYMid"
       id="pattern27"
       patternTransform="scale(0.5)"
       x="0"
       y="0" />
    <linearGradient
       id="linearGradient118859">
      <stop
   style="stop-color:#fc0000;stop-opacity:1;"
   offset="0"
   id="stop118855" />

      <stop
   style="stop-color:#000000;stop-opacity:1;"
   offset="1"
   id="stop118857" />

    </linearGradient>
    <linearGradient
       xlink:href="#linearGradient118859"
       id="linearGradient118861"
       x1="20"
       y1="50"
       x2="80"
       y2="50"
       gradientUnits="userSpaceOnUse"
       gradientTransform="matrix(1.1666667,0,0,1.1666667,12.377344,-58.333337)" />
    <linearGradient
       id="linearGradient119593">
      <stop
   style="stop-color:#000000;stop-opacity:1;"
   offset="0"
   id="stop119589" />

      <stop
   style="stop-color:#f70000;stop-opacity:1;"
   offset="1"
   id="stop119591" />

    </linearGradient>
    <linearGradient
       xlink:href="#linearGradient119593"
       id="linearGradient119595"
       x1="0"
       y1="0"
       x2="100"
       y2="100"
       gradientUnits="userSpaceOnUse" />
    <pattern
       patternUnits="userSpaceOnUse"
       width="100"
       height="100"
       id="RedButton"
       style="fill:none"
       preserveAspectRatio="xMidYMid"
       patternTransform="scale(0.5,0.5)">
      <g
   id="g119599">
        <rect
   style="opacity:1;fill:url(#linearGradient119595);fill-opacity:1;stroke:none;stroke-width:1;stroke-dasharray:none"
   id="rect118102"
   width="100"
   height="100"
   x="0"
   y="0" />

        <circle
   style="opacity:1;fill:url(#linearGradient118861);fill-opacity:1;stroke:none;stroke-width:1;stroke-dasharray:none"
   id="path118104"
   cx="70.71067"
   cy="-6.3879543e-07"
   r="35.000004"
   transform="rotate(45)" />

      </g>

    </pattern>
    <linearGradient
       id="swatch8">
      <stop
         style="stop-color:#000000;stop-opacity:0.36194033;"
         offset="0"
         id="stop9" />
    </linearGradient>
    <linearGradient
       id="linearGradient7">
      <stop
         style="stop-color:#dd5df5;stop-opacity:1;"
         offset="0"
         id="stop7" />
      <stop
         style="stop-color:#dd4ef5;stop-opacity:0;"
         offset="1"
         id="stop8" />
    </linearGradient>
    <linearGradient
       id="swatch2">
      <stop
         style="stop-color:#000000;stop-opacity:1;"
         offset="0"
         id="stop2" />
    </linearGradient>
    <radialGradient
       xlink:href="#linearGradient7"
       id="radialGradient8"
       cx="-8.8817842e-16"
       cy="-289.89642"
       fx="-8.8817842e-16"
       fy="-289.89642"
       r="8.9998751"
       gradientTransform="matrix(1,0,0,3.2701495,0,658.1082)"
       gradientUnits="userSpaceOnUse" />
  </defs>
  <g
     id="layer1"
     transform="translate(31.53125,319.32736)">
    <g
       id="g23"
       transform="matrix(2.3594304,0,0,0.70310532,-0.00154846,-73.285316)">
      <g
         id="path22">
        <path
           style="color:#000000;fill:#da1fe0;stroke-linecap:round;-inkscape-stroke:none"
           d="m -5.5000004,-250.9278 v 117.96106"
           id="path26" />
        <path
           style="color:#000000;fill:#da1fe0;stroke-linecap:round;-inkscape-stroke:none"
           d="m -5.5,-254.92773 c -2.209139,0 -3.7821169,2.29841 -4,4 -0.713134,5.56933 9.54157091,9.36194 9.5,14.96058 -0.0406238,5.47109 -9.6132679,9.05922 -9.5,14.52965 0.1065786,5.14736 9.26481365,8.28036 9.5,13.42496 0.27086685,5.9251 -9.0384697,10.1478 -9.5,16.06528 -0.63318,8.11828 8.70805141,15.06685 9.50659988,23.1757 0.40932215,4.15646 -0.62279842,8.45668 -2.48706888,12.34763 -1.5469236,3.2286 -7.244376,5.25703 -7.019531,8.71201 0.1945628,2.98967 6.1420269,4.07878 7.019531,6.98828 1.1729054,3.88894 -5.22867,11.75684 -3.019531,11.75684 2.209139,0 4,-1.79086 4,-4 v -117.96093 c 0,-2.20914 -1.790861,-4 -4,-4 z"
           id="path27" />
      </g>
      <g
         id="path23">
        <path
           style="color:#000000;fill:#da1fe0;stroke-linecap:round;-inkscape-stroke:none"
           d="M 5.5000004,-251.03784 V -132.8567"
           id="path28" />
        <path
           style="color:#000000;fill:#421fe0;stroke-linecap:round;-inkscape-stroke:none"
           d="m 5.5,-255.03711 c -2.209139,0 -4,1.79086 -4,4 v 118.17969 c 0,2.20914 1.790861,4 4,4 2.209139,0 -4.2346103,-8.02419 -3,-11.97231 0.8922079,-2.85316 6.7617934,-3.8645 7,-6.80015 0.2854327,-3.51766 -5.4468499,-5.6581 -7,-8.95483 -1.81384993,-3.85009 -2.89015198,-8.08238 -2.49340012,-12.18685 0.78381175,-8.10867 10.12857912,-15.05863 9.49340012,-23.1757 -0.4630506,-5.91741 -9.76443278,-10.13999 -9.5,-16.06528 0.23030699,-5.16061 9.4036931,-8.3163 9.5,-13.47965 0.1017364,-5.45444 -9.44423285,-9.02009 -9.5,-14.47496 -0.0575683,-5.63105 10.227529,-9.46916 9.5,-15.06996 -0.2209984,-1.70133 -1.790861,-4 -4,-4 z"
           id="path29" />
      </g>
    </g>
  </g>
  <g
     id="layer2"
     transform="translate(31.53125,319.32736)">
    <g
       id="path7"
       transform="translate(-0.07543947,-64.273691)"
       style="fill:url(#pattern27);fill-opacity:1">
      <path
         style="color:#000000;fill:url(#pattern27);fill-opacity:1;-inkscape-stroke:none"
         d="M 14.516474,-90.640221 A 14.516474,14.516473 0 0 1 0,-76.123748 14.516474,14.516473 0 0 1 -14.516474,-90.640221 14.516474,14.516473 0 0 1 0,-105.15669 14.516474,14.516473 0 0 1 14.516474,-90.640221 Z"
         id="path24" />
      <path
         style="color:#000000;fill:url(#pattern27);fill-opacity:1;-inkscape-stroke:none"
         d="m 0,-105.64063 c -8.278535,0 -14.999998,6.721471 -15,15.000005 0,8.278536 6.7214634,15 15,15 8.2785366,0 15,-6.721464 15,-15 -2e-6,-8.278534 -6.721465,-15.000005 -15,-15.000005 z m 0,0.9668 c 7.7559003,0 14.033201,6.277305 14.033203,14.033205 0,7.755901 -6.2773012,14.033203 -14.033203,14.033203 -7.7559018,0 -14.033203,-6.277302 -14.033203,-14.033203 2e-6,-7.7559 6.2773027,-14.033205 14.033203,-14.033205 z"
         id="path25" />
    </g>
    <path
       d="m -14.515625,-282.98596 c -9.368299,0 -17.015625,7.64803 -17.015625,17.01479 0,9.36676 7.647326,17.01283 17.015625,17.01283 6.1287923,0 11.5192576,-3.27306 14.515625,-8.15881 -0.05804338,-0.0947 -0.11368863,-0.19122 -0.16992187,-0.28707 -0.0551928,-0.0941 -0.11063288,-0.18798 -0.16406251,-0.28315 -0.0621601,-0.11076 -0.12385846,-0.22167 -0.18359374,-0.33393 -0.0686646,-0.129 -0.13380367,-0.25964 -0.19921875,-0.39056 -0.0627091,-0.12557 -0.12392591,-0.25156 -0.18359376,-0.37885 -0.0680472,-0.14507 -0.13323327,-0.29213 -0.19726557,-0.43938 -0.044433,-0.10225 -0.088393,-0.20527 -0.1308594,-0.30855 -0.048278,-0.1173 -0.094916,-0.23487 -0.140625,-0.35345 -0.039278,-0.10197 -0.079834,-0.20369 -0.1171875,-0.30659 -0.011897,-0.0328 -0.021503,-0.0668 -0.033203,-0.0996 -0.058852,-0.16522 -0.1160957,-0.33243 -0.1699219,-0.49992 -0.032697,-0.10184 -0.064892,-0.20394 -0.095703,-0.30659 -0.043199,-0.14379 -0.083596,-0.28819 -0.1230469,-0.43353 -0.025202,-0.0929 -0.050568,-0.18571 -0.074219,-0.27924 -0.058665,-0.23183 -0.1131316,-0.46563 -0.1621094,-0.70107 -0.00877,-0.0422 -0.01694,-0.0847 -0.025391,-0.12693 -0.040464,-0.20228 -0.076209,-0.40646 -0.109375,-0.61123 -0.011162,-0.069 -0.022879,-0.13772 -0.033203,-0.20699 -0.035082,-0.23508 -0.066522,-0.4708 -0.091797,-0.70887 -4.157e-4,-0.004 -0.00154,-0.008 -0.00195,-0.0117 -0.00806,-0.0765 -0.0125,-0.15368 -0.019531,-0.23044 -0.016472,-0.17965 -0.030229,-0.35973 -0.041016,-0.54093 -0.00484,-0.0813 -0.00999,-0.16245 -0.013672,-0.2441 -0.011541,-0.25574 -0.019531,-0.51285 -0.019531,-0.77135 0,6.66502 -5.3495181,12.01365 -12.0156247,12.01365 -6.666107,0 -12.015625,-5.34863 -12.015625,-12.01365 0,-6.66502 5.349518,-12.01561 12.015625,-12.01561 6.6661066,0 12.0156247,5.35059 12.0156247,12.01561 0,-0.2585 0.00799,-0.51563 0.019531,-0.77135 0.00368,-0.0817 0.00883,-0.16277 0.013672,-0.24411 0.010787,-0.18118 0.024543,-0.36127 0.041016,-0.54093 0.00703,-0.0768 0.011475,-0.15396 0.019531,-0.23043 4.131e-4,-0.004 0.00154,-0.008 0.00195,-0.0117 0.025276,-0.23805 0.056714,-0.47379 0.091797,-0.70886 0.010498,-0.0705 0.021838,-0.14074 0.033203,-0.2109 0.031837,-0.19627 0.066924,-0.39185 0.1054688,-0.58585 0.010568,-0.0533 0.020182,-0.10703 0.03125,-0.16012 0.048168,-0.23073 0.100728,-0.46015 0.1582031,-0.68739 0.023845,-0.0944 0.050749,-0.18746 0.076172,-0.2812 0.039451,-0.14534 0.079848,-0.28975 0.1230469,-0.43353 0.031139,-0.10376 0.062639,-0.20757 0.095703,-0.31049 0.041261,-0.1283 0.086643,-0.25579 0.1308594,-0.38276 0.024579,-0.0707 0.046782,-0.14263 0.072266,-0.21285 0.041984,-0.1157 0.088398,-0.22917 0.1328125,-0.3437 0.040064,-0.1032 0.079081,-0.2063 0.1210937,-0.30854 0.043567,-0.10612 0.089124,-0.21131 0.1347657,-0.31636 0.064032,-0.14724 0.12921889,-0.2943 0.19726557,-0.43937 0.0674875,-0.14399 0.13761027,-0.28589 0.20898438,-0.42767 0.0534729,-0.10616 0.10649388,-0.21147 0.16210938,-0.31635 0.0650209,-0.12269 0.1313064,-0.24427 0.19921874,-0.36518 0.0522789,-0.0931 0.10619211,-0.18534 0.16015626,-0.2773 0.056215,-0.0958 0.11189789,-0.19243 0.16992187,-0.28706 -2.9963561,-4.88638 -8.3867942,-8.16077 -14.515625,-8.16077 z"
       style="fill:#421fe0;stroke-width:0.999918"
       id="path19" />
    <path
       d="m 14.515625,-282.98596 c -6.1288307,0 -11.5192689,3.27439 -14.515625,8.16077 1.5837568,2.58276 2.5,5.61509 2.5,8.85402 0,-6.66502 5.3495182,-12.01561 12.015625,-12.01561 6.666107,0 12.015625,5.35059 12.015625,12.01561 0,6.66502 -5.349518,12.01365 -12.015625,12.01365 -6.6661068,0 -12.015625,-5.34863 -12.015625,-12.01365 0,3.23897 -0.9162082,6.27154 -2.5,8.85402 2.9963674,4.88575 8.3868328,8.15881 14.515625,8.15881 9.368299,0 17.015625,-7.64607 17.015625,-17.01283 0,-9.36676 -7.647326,-17.01479 -17.015625,-17.01479 z M 0,-257.11715 c -0.05803928,-0.0946 -0.11368874,-0.19125 -0.16992187,-0.28707 0.0562333,0.0959 0.11187843,0.19242 0.16992187,0.28707 z m 0,-17.70804 c -0.05802403,0.0946 -0.11370681,0.19124 -0.16992187,0.28706 0.0562321,-0.0958 0.11188384,-0.19243 0.16992187,-0.28706 z m -0.33007813,0.56436 c -0.0679124,0.12091 -0.13419775,0.24249 -0.19921874,0.36518 0.0649607,-0.12251 0.13137863,-0.24444 0.19921874,-0.36518 z m -0.36132812,0.68153 c -0.0713742,0.14178 -0.14149676,0.28368 -0.20898438,0.42767 0.067557,-0.14404 0.13754111,-0.28584 0.20898438,-0.42767 z m -0.40624995,0.86704 c -0.045642,0.10505 -0.091199,0.21024 -0.1347657,0.31636 0.043527,-0.10592 0.089172,-0.2115 0.1347657,-0.31636 z m -0.2558594,0.6249 c -0.044414,0.11453 -0.090829,0.228 -0.1328125,0.3437 0.042122,-0.11598 0.088248,-0.2289 0.1328125,-0.3437 z m -0.3359375,0.93931 c -0.033064,0.10292 -0.064564,0.20673 -0.095703,0.31049 0.031205,-0.10387 0.062569,-0.20747 0.095703,-0.31049 z m -0.21875,0.74402 c -0.025423,0.0938 -0.052327,0.18683 -0.076172,0.2812 0.02388,-0.0944 0.050712,-0.18742 0.076172,-0.2812 z m -0.234375,0.96859 c -0.011068,0.0531 -0.020682,0.10685 -0.03125,0.16012 0.010584,-0.0533 0.020166,-0.10703 0.03125,-0.16012 z m -0.1367188,0.74597 c -0.011366,0.0702 -0.022705,0.14045 -0.033203,0.2109 0.010519,-0.0705 0.021815,-0.14071 0.033203,-0.2109 z m -0.1269531,0.93148 c -0.00806,0.0765 -0.0125,0.15368 -0.019531,0.23043 0.00704,-0.0768 0.011465,-0.15395 0.019531,-0.23043 z m -0.060547,0.77136 c -0.00484,0.0814 -0.00999,0.16246 -0.013672,0.24411 0.00368,-0.0816 0.00883,-0.16286 0.013672,-0.24411 z m -0.013672,1.78681 c 0.00368,0.0817 0.00883,0.16277 0.013672,0.2441 -0.00484,-0.0813 -0.00999,-0.16254 -0.013672,-0.2441 z m 0.054687,0.78503 c 0.00703,0.0768 0.011475,0.15397 0.019531,0.23044 -0.00807,-0.0765 -0.012492,-0.15367 -0.019531,-0.23044 z m 0.1132813,0.95102 c 0.010324,0.0693 0.022041,0.138 0.033203,0.20699 -0.011167,-0.069 -0.022875,-0.13778 -0.033203,-0.20699 z m 0.1425781,0.81822 c 0.00845,0.0423 0.016625,0.0848 0.025391,0.12693 -0.00877,-0.0421 -0.01694,-0.0847 -0.025391,-0.12693 z m 0.1875,0.828 c 0.023651,0.0935 0.049017,0.18632 0.074219,0.27924 -0.025251,-0.093 -0.050523,-0.18561 -0.074219,-0.27924 z m 0.1972657,0.71277 c 0.030812,0.10265 0.063006,0.20475 0.095703,0.30659 -0.032732,-0.10185 -0.064857,-0.20393 -0.095703,-0.30659 z m 0.2988281,0.9061 c 0.037354,0.1029 0.07791,0.20462 0.1171875,0.30659 -0.039462,-0.10238 -0.079666,-0.20328 -0.1171875,-0.30659 z m 0.2578125,0.66004 c 0.042467,0.10328 0.086426,0.2063 0.1308594,0.30855 -0.044439,-0.10219 -0.088384,-0.20533 -0.1308594,-0.30855 z m 0.32812497,0.74793 c 0.0596679,0.12729 0.12088462,0.25328 0.18359376,0.37885 -0.0626603,-0.12541 -0.12396451,-0.25172 -0.18359376,-0.37885 z m 0.38281251,0.76941 c 0.0597353,0.11226 0.12143357,0.22317 0.18359374,0.33393 -0.0622893,-0.11096 -0.1237348,-0.22147 -0.18359374,-0.33393 z"
       style="fill:#da1fe0;stroke-width:0.999918"
       id="path18" />
    <path
       d="m 0,-274.82519 c -1.5840634,2.58276 -2.5,5.61508 -2.5,8.85402 0,3.23898 0.9159026,6.27154 2.5,8.85402 1.5837934,-2.58248 2.5,-5.61504 2.5,-8.85402 0,-3.23894 -0.9162416,-6.27126 -2.5,-8.85402 z"
       style="fill:#421fe0;fill-opacity:0.476077;stroke-width:0.999918"
       id="path17" />
    <path
       id="path15"
       style="color:#000000;fill:url(#pattern30);fill-opacity:1;stroke:url(#radialGradient8);stroke-width:2.99975;stroke-opacity:1;-inkscape-stroke:none"
       d="m 5e-7,-316.45834 c -4.7521802,7.74829 -7.5000009,16.84524 -7.5000009,26.56206 0,9.71695 2.747701,18.81462 7.5000008,26.56207 4.7514,-7.74743 7.5,-16.84512 7.5,-26.56207 0,-9.7168 -2.74872,-18.81377 -7.4999999,-26.56206 z" />
  </g>
</svg>
