<?xml version="1.0" encoding="UTF-8" standalone="no"?>
<!-- Created with Inkscape (http://www.inkscape.org/) -->

<svg
   width="126.125"
   height="295.33688"
   viewBox="0 0 126.125 295.33688"
   version="1.1"
   id="svg1"
   inkscape:version="1.3.2 (091e20e, 2023-11-25, custom)"
   sodipodi:docname="clockpart3.svg"
   inkscape:export-filename="tmp3.svg"
   inkscape:export-xdpi="96"
   inkscape:export-ydpi="96"
   xmlns:inkscape="http://www.inkscape.org/namespaces/inkscape"
   xmlns:sodipodi="http://sodipodi.sourceforge.net/DTD/sodipodi-0.dtd"
   xmlns:xlink="http://www.w3.org/1999/xlink"
   xmlns="http://www.w3.org/2000/svg"
   xmlns:svg="http://www.w3.org/2000/svg">
  <sodipodi:namedview
     id="namedview1"
     pagecolor="#ffffff"
     bordercolor="#cccccc"
     borderopacity="1"
     inkscape:showpageshadow="0"
     inkscape:pageopacity="1"
     inkscape:pagecheckerboard="0"
     inkscape:deskcolor="#d1d1d1"
     inkscape:document-units="px"
     inkscape:zoom="2.6374999"
     inkscape:cx="9.6682468"
     inkscape:cy="-216.68247"
     inkscape:window-width="1920"
     inkscape:window-height="1017"
     inkscape:window-x="-8"
     inkscape:window-y="-8"
     inkscape:window-maximized="1"
     inkscape:current-layer="layer2"
     showgrid="false" />
  <defs
     id="defs1">
    <pattern
       inkscape:collect="always"
       xlink:href="#packed-circles"
       preserveAspectRatio="xMidYMid"
       id="pattern1"
       patternTransform="scale(10)" />
    <pattern
       inkscape:collect="always"
       patternUnits="userSpaceOnUse"
       width="1"
       height="1.73205080756"
       patternTransform="translate(0,0) scale(10,10)"
       preserveAspectRatio="xMidYMid"
       style="fill:#000000"
       id="packed-circles"
       inkscape:stockid="Packed circles"
       inkscape:label="Packed circles"
       inkscape:isstock="true">
      <circle
         style="stroke:none"
         cx="0"
         cy="0.5"
         r="0.5"
         id="circle219" />
      <circle
         style="stroke:none"
         cx="1"
         cy="0.5"
         r="0.5"
         id="circle221" />
      <circle
         style="stroke:none"
         cx="0.5"
         cy="1.36602540378"
         r="0.5"
         id="circle223" />
      <circle
         style="stroke:none"
         cx="0.5"
         cy="-0.366025403784"
         r="0.5"
         id="circle225" />
    </pattern>
    <pattern
       inkscape:collect="always"
       xlink:href="#RedButton"
       preserveAspectRatio="xMidYMid"
       id="pattern30"
       patternTransform="translate(0,263.73528)" />
    <linearGradient
       inkscape:collect="always"
       id="linearGradient118859">
      <stop
         style="stop-color:#fc0000;stop-opacity:1;"
         offset="0"
         id="stop118855" />
      <stop
         style="stop-color:#000000;stop-opacity:1;"
         offset="1"
         id="stop118857" />
    </linearGradient>
    <linearGradient
       inkscape:collect="always"
       xlink:href="#linearGradient118859"
       id="linearGradient118861"
       x1="20"
       y1="50"
       x2="80"
       y2="50"
       gradientUnits="userSpaceOnUse"
       gradientTransform="matrix(1.1666667,0,0,1.1666667,12.377344,-58.333337)" />
    <linearGradient
       inkscape:collect="always"
       id="linearGradient119593">
      <stop
         style="stop-color:#000000;stop-opacity:1;"
         offset="0"
         id="stop119589" />
      <stop
         style="stop-color:#f70000;stop-opacity:1;"
         offset="1"
         id="stop119591" />
    </linearGradient>
    <linearGradient
       inkscape:collect="always"
       xlink:href="#linearGradient119593"
       id="linearGradient119595"
       x1="0"
       y1="0"
       x2="100"
       y2="100"
       gradientUnits="userSpaceOnUse" />
    <pattern
       patternUnits="userSpaceOnUse"
       width="100"
       height="100"
       id="RedButton"
       style="fill:none"
       preserveAspectRatio="xMidYMid"
       patternTransform="scale(0.5,0.5)"
       inkscape:collect="always"
       inkscape:isstock="true"
       inkscape:label="RedButton">
      <g
         id="g119599">
        <rect
           style="opacity:1;fill:url(#linearGradient119595);fill-opacity:1;stroke:none;stroke-width:1;stroke-dasharray:none"
           id="rect118102"
           width="100"
           height="100"
           x="0"
           y="0" />
        <circle
           style="opacity:1;fill:url(#linearGradient118861);fill-opacity:1;stroke:none;stroke-width:1;stroke-dasharray:none"
           id="path118104"
           cx="70.71067"
           cy="-6.3879543e-07"
           r="35.000004"
           transform="rotate(45)" />
      </g>
    </pattern>
    <linearGradient
       id="swatch8"
       inkscape:swatch="solid">
      <stop
         style="stop-color:#000000;stop-opacity:0.36194033;"
         offset="0"
         id="stop9" />
    </linearGradient>
    <linearGradient
       id="swatch2"
       inkscape:swatch="solid">
      <stop
         style="stop-color:#000000;stop-opacity:1;"
         offset="0"
         id="stop2" />
    </linearGradient>
  </defs>
  <g
     inkscape:label="Layer 1"
     inkscape:groupmode="layer"
     id="layer1"
     transform="translate(63.0625,374.91943)">
    <g
       id="g23"
       transform="matrix(2.3594304,0,0,0.70310532,-0.00154846,-73.285316)"
       inkscape:export-filename="tmp3.svg"
       inkscape:export-xdpi="96"
       inkscape:export-ydpi="96">
      <g
         id="path22">
        <path
           style="color:#000000;fill:#da1fe0;stroke-linecap:round;-inkscape-stroke:none"
           d="m -5.5000004,-250.9278 v 117.96106"
           id="path26" />
        <path
           style="color:#000000;fill:#da1fe0;stroke-linecap:round;-inkscape-stroke:none"
           d="m -5.5,-254.92773 c -2.209139,0 -3.7821169,2.29841 -4,4 -0.713134,5.56933 9.54157091,9.36194 9.5,14.96058 -0.0406238,5.47109 -9.6132679,9.05922 -9.5,14.52965 0.1065786,5.14736 9.26481365,8.28036 9.5,13.42496 0.27086685,5.9251 -9.0384697,10.1478 -9.5,16.06528 -0.63318,8.11828 8.70805141,15.06685 9.50659988,23.1757 0.40932215,4.15646 -0.62279842,8.45668 -2.48706888,12.34763 -1.5469236,3.2286 -7.244376,5.25703 -7.019531,8.71201 0.1945628,2.98967 6.1420269,4.07878 7.019531,6.98828 1.1729054,3.88894 -5.22867,11.75684 -3.019531,11.75684 2.209139,0 4,-1.79086 4,-4 v -117.96093 c 0,-2.20914 -1.790861,-4 -4,-4 z"
           id="path27"
           sodipodi:nodetypes="saaaaaaaaassss" />
      </g>
      <g
         id="path23">
        <path
           style="color:#000000;fill:#da1fe0;stroke-linecap:round;-inkscape-stroke:none"
           d="M 5.5000004,-251.03784 V -132.8567"
           id="path28" />
        <path
           style="color:#000000;fill:#421fe0;stroke-linecap:round;-inkscape-stroke:none"
           d="m 5.5,-255.03711 c -2.209139,0 -4,1.79086 -4,4 v 118.17969 c 0,2.20914 1.790861,4 4,4 2.209139,0 -4.2346103,-8.02419 -3,-11.97231 0.8922079,-2.85316 6.7617934,-3.8645 7,-6.80015 0.2854327,-3.51766 -5.4468499,-5.6581 -7,-8.95483 -1.81384993,-3.85009 -2.89015198,-8.08238 -2.49340012,-12.18685 0.78381175,-8.10867 10.12857912,-15.05863 9.49340012,-23.1757 -0.4630506,-5.91741 -9.76443278,-10.13999 -9.5,-16.06528 0.23030699,-5.16061 9.4036931,-8.3163 9.5,-13.47965 0.1017364,-5.45444 -9.44423285,-9.02009 -9.5,-14.47496 -0.0575683,-5.63105 10.227529,-9.46916 9.5,-15.06996 -0.2209984,-1.70133 -1.790861,-4 -4,-4 z"
           id="path29"
           sodipodi:nodetypes="ssssaaaaaaaaas" />
      </g>
    </g>
  </g>
  <g
     inkscape:groupmode="layer"
     id="layer2"
     inkscape:label="Layer 2"
     transform="translate(63.0625,374.91943)">
    <g
       id="path7"
       transform="matrix(3,0,0,3,-0.17954263,147.33931)"
       style="fill:url(#pattern1);fill-opacity:1">
      <path
         style="color:#000000;fill:url(#pattern1);fill-opacity:1;-inkscape-stroke:none"
         d="M 14.516474,-90.640221 A 14.516474,14.516473 0 0 1 0,-76.123748 14.516474,14.516473 0 0 1 -14.516474,-90.640221 14.516474,14.516473 0 0 1 0,-105.15669 14.516474,14.516473 0 0 1 14.516474,-90.640221 Z"
         id="path24" />
      <path
         style="color:#000000;fill:url(#pattern1);fill-opacity:1;-inkscape-stroke:none"
         d="m 0,-105.64063 c -8.278535,0 -14.999998,6.721471 -15,15.000005 0,8.278536 6.7214634,15 15,15 8.2785366,0 15,-6.721464 15,-15 -2e-6,-8.278534 -6.721465,-15.000005 -15,-15.000005 z m 0,0.9668 c 7.7559003,0 14.033201,6.277305 14.033203,14.033205 0,7.755901 -6.2773012,14.033203 -14.033203,14.033203 -7.7559018,0 -14.033203,-6.277302 -14.033203,-14.033203 2e-6,-7.7559 6.2773027,-14.033205 14.033203,-14.033205 z"
         id="path25" />
    </g>
    <path
       d="m -29.03125,-299.99977 c -18.736598,0 -34.03125,15.29606 -34.03125,34.02958 0,18.73352 15.294652,34.02566 34.03125,34.02566 12.257585,0 23.0385152,-6.54612 29.03125,-16.31762 -0.11608676,-0.1894 -0.22737726,-0.38244 -0.33984374,-0.57414 -0.1103856,-0.1882 -0.22126576,-0.37596 -0.32812502,-0.5663 -0.1243202,-0.22152 -0.24771692,-0.44334 -0.36718744,-0.66786 -0.1373292,-0.258 -0.2676074,-0.51928 -0.3984375,-0.78112 -0.1254182,-0.25114 -0.2478519,-0.50312 -0.3671876,-0.7577 -0.1360944,-0.29014 -0.2664665,-0.58426 -0.3945311,-0.87876 -0.088866,-0.2045 -0.176786,-0.41054 -0.2617188,-0.6171 -0.096556,-0.2346 -0.189832,-0.46974 -0.28125,-0.7069 -0.078556,-0.20394 -0.159668,-0.40738 -0.234375,-0.61318 -0.023794,-0.0656 -0.043006,-0.1336 -0.066406,-0.1992 -0.117704,-0.33044 -0.2321914,-0.66486 -0.3398438,-0.99984 -0.065394,-0.20368 -0.129784,-0.40788 -0.191406,-0.61318 -0.086398,-0.28758 -0.167192,-0.57638 -0.2460938,-0.86706 -0.050404,-0.1858 -0.101136,-0.37142 -0.148438,-0.55848 -0.11733,-0.46366 -0.2262632,-0.93126 -0.3242188,-1.40214 -0.01754,-0.0844 -0.03388,-0.1694 -0.050782,-0.25386 -0.080928,-0.40456 -0.152418,-0.81292 -0.21875,-1.22246 -0.022324,-0.138 -0.045758,-0.27544 -0.066406,-0.41398 -0.070164,-0.47016 -0.133044,-0.9416 -0.183594,-1.41774 -8.314e-4,-0.008 -0.00308,-0.016 -0.0039,-0.0234 -0.01612,-0.153 -0.025,-0.30736 -0.039062,-0.46088 -0.032944,-0.3593 -0.060458,-0.71946 -0.082032,-1.08186 -0.00968,-0.1626 -0.01998,-0.3249 -0.027344,-0.4882 -0.023082,-0.51148 -0.039062,-1.0257 -0.039062,-1.5427 0,13.33004 -10.6990364,24.0273 -24.0312494,24.0273 -13.332214,0 -24.03125,-10.69726 -24.03125,-24.0273 0,-13.33004 10.699036,-24.03122 24.03125,-24.03122 13.332213,0 24.0312494,10.70118 24.0312494,24.03122 0,-0.517 0.01598,-1.03126 0.039062,-1.5427 0.00736,-0.1634 0.01766,-0.32554 0.027344,-0.48822 0.021574,-0.36236 0.049086,-0.72254 0.082032,-1.08186 0.01406,-0.1536 0.02295,-0.30792 0.039062,-0.46086 8.262e-4,-0.008 0.00308,-0.016 0.0039,-0.0234 0.050552,-0.4761 0.113428,-0.94758 0.183594,-1.41772 0.020996,-0.141 0.043676,-0.28148 0.066406,-0.4218 0.063674,-0.39254 0.133848,-0.7837 0.2109376,-1.1717 0.021136,-0.1066 0.040364,-0.21406 0.0625,-0.32024 0.096336,-0.46146 0.201456,-0.9203 0.3164062,-1.37478 0.04769,-0.1888 0.101498,-0.37492 0.152344,-0.5624 0.078902,-0.29068 0.159696,-0.5795 0.2460938,-0.86706 0.062278,-0.20752 0.125278,-0.41514 0.191406,-0.62098 0.082522,-0.2566 0.173286,-0.51158 0.2617188,-0.76552 0.049158,-0.1414 0.093564,-0.28526 0.144532,-0.4257 0.083968,-0.2314 0.176796,-0.45834 0.265625,-0.6874 0.080128,-0.2064 0.158162,-0.4126 0.2421874,-0.61708 0.087134,-0.21224 0.178248,-0.42262 0.2695314,-0.63272 0.128064,-0.29448 0.2584378,-0.5886 0.3945311,-0.87874 0.134975,-0.28798 0.2752206,-0.57178 0.4179688,-0.85534 0.1069458,-0.21232 0.2129878,-0.42294 0.3242188,-0.6327 0.13004176,-0.24538 0.26261276,-0.48854 0.39843744,-0.73036 0.1045578,-0.1862 0.21238422,-0.37068 0.32031252,-0.5546 0.11243,-0.1916 0.22379578,-0.38486 0.33984374,-0.57412 -5.9927122,-9.77276 -16.773588,-16.32154 -29.03125,-16.32154 z"
       style="fill:#421fe0;stroke-width:1.99984"
       id="path19" />
    <path
       d="m 29.03125,-299.99977 c -12.257661,0 -23.0385378,6.54878 -29.03125,16.32154 3.1675136,5.16552 5,11.23018 5,17.70804 0,-13.33004 10.699036,-24.03122 24.03125,-24.03122 13.332214,0 24.03125,10.70118 24.03125,24.03122 0,13.33004 -10.699036,24.0273 -24.03125,24.0273 C 15.699036,-241.94289 5,-252.64015 5,-265.97019 c 0,6.47794 -1.8324164,12.54308 -5,17.70804 5.9927348,9.7715 16.773666,16.31762 29.03125,16.31762 18.736598,0 34.03125,-15.29214 34.03125,-34.02566 0,-18.73352 -15.294652,-34.02958 -34.03125,-34.02958 z M 0,-248.26215 c -0.11607856,-0.1892 -0.22737748,-0.3825 -0.33984374,-0.57414 0.1124666,0.1918 0.22375686,0.38484 0.33984374,0.57414 z m 0,-35.41608 c -0.11604806,0.1892 -0.22741362,0.38248 -0.33984374,0.57412 0.1124642,-0.1916 0.22376768,-0.38486 0.33984374,-0.57412 z m -0.66015626,1.12872 c -0.1358248,0.24182 -0.2683955,0.48498 -0.39843744,0.73036 0.12992136,-0.24502 0.26275722,-0.48888 0.39843744,-0.73036 z m -0.72265624,1.36306 c -0.1427484,0.28356 -0.2829935,0.56736 -0.4179688,0.85534 0.135114,-0.28808 0.2750823,-0.57168 0.4179688,-0.85534 z m -0.8124999,1.73408 c -0.091284,0.2101 -0.182398,0.42048 -0.2695314,0.63272 0.087054,-0.21184 0.178344,-0.423 0.2695314,-0.63272 z m -0.5117188,1.2498 c -0.088828,0.22906 -0.181658,0.456 -0.265625,0.6874 0.084244,-0.23196 0.176496,-0.4578 0.265625,-0.6874 z m -0.671875,1.87862 c -0.066128,0.20584 -0.129128,0.41346 -0.191406,0.62098 0.06241,-0.20774 0.125138,-0.41494 0.191406,-0.62098 z m -0.4375,1.48804 c -0.050846,0.1876 -0.104654,0.37366 -0.152344,0.5624 0.04776,-0.1888 0.101424,-0.37484 0.152344,-0.5624 z m -0.46875,1.93718 c -0.022136,0.1062 -0.041364,0.2137 -0.0625,0.32024 0.021168,-0.1066 0.040332,-0.21406 0.0625,-0.32024 z m -0.2734376,1.49194 c -0.022732,0.1404 -0.04541,0.2809 -0.066406,0.4218 0.021038,-0.141 0.04363,-0.28142 0.066406,-0.4218 z m -0.2539062,1.86296 c -0.01612,0.153 -0.025,0.30736 -0.039062,0.46086 0.01408,-0.1536 0.02293,-0.3079 0.039062,-0.46086 z m -0.121094,1.54272 c -0.00968,0.1628 -0.01998,0.32492 -0.027344,0.48822 0.00736,-0.1632 0.01766,-0.32572 0.027344,-0.48822 z m -0.027344,3.57362 c 0.00736,0.1634 0.01766,0.32554 0.027344,0.4882 -0.00968,-0.1626 -0.01998,-0.32508 -0.027344,-0.4882 z m 0.109374,1.57006 c 0.01406,0.1536 0.02295,0.30794 0.039062,0.46088 -0.01614,-0.153 -0.024984,-0.30734 -0.039062,-0.46088 z m 0.2265626,1.90204 c 0.020648,0.1386 0.044082,0.276 0.066406,0.41398 -0.022334,-0.138 -0.04575,-0.27556 -0.066406,-0.41398 z m 0.2851562,1.63644 c 0.0169,0.0846 0.03325,0.1696 0.050782,0.25386 -0.01754,-0.0842 -0.03388,-0.1694 -0.050782,-0.25386 z m 0.375,1.656 c 0.047302,0.187 0.098034,0.37264 0.148438,0.55848 -0.050502,-0.186 -0.101046,-0.37122 -0.148438,-0.55848 z m 0.3945314,1.42554 c 0.061624,0.2053 0.126012,0.4095 0.191406,0.61318 -0.065464,-0.2037 -0.129714,-0.40786 -0.191406,-0.61318 z m 0.5976562,1.8122 c 0.074708,0.2058 0.15582,0.40924 0.234375,0.61318 -0.078924,-0.20476 -0.159332,-0.40656 -0.234375,-0.61318 z m 0.515625,1.32008 c 0.084934,0.20656 0.172852,0.4126 0.2617188,0.6171 -0.088878,-0.20438 -0.176768,-0.41066 -0.2617188,-0.6171 z m 0.6562499,1.49586 c 0.1193358,0.25458 0.2417693,0.50656 0.3671876,0.7577 -0.1253206,-0.25082 -0.2479291,-0.50344 -0.3671876,-0.7577 z m 0.7656251,1.53882 c 0.11947056,0.22452 0.2428671,0.44634 0.36718744,0.66786 -0.1245786,-0.22192 -0.2474696,-0.44294 -0.36718744,-0.66786 z"
       style="fill:#da1fe0;stroke-width:1.99984"
       id="path18" />
    <path
       d="m 0,-274.82519 c -1.5840634,2.58276 -2.5,5.61508 -2.5,8.85402 0,3.23898 0.9159026,6.27154 2.5,8.85402 1.5837934,-2.58248 2.5,-5.61504 2.5,-8.85402 0,-3.23894 -0.9162416,-6.27126 -2.5,-8.85402 z"
       style="fill:#421fe0;fill-opacity:0.476077;stroke-width:0.999918"
       id="path17" />
    <path
       id="path15"
       style="color:#000000;fill:url(#pattern30);fill-opacity:1;stroke:#000000;stroke-width:5.9995;stroke-opacity:1;-inkscape-stroke:none"
       d="m 1e-6,-369.1814 c -9.5043604,15.49658 -15.000002,33.69048 -15.000002,53.12412 0,19.4339 5.4954022,37.62924 15.0000018,53.12414 9.5028,-15.49486 15.0000002,-33.69024 15.0000002,-53.12414 0,-19.4336 -5.4974402,-37.62754 -15,-53.12412 z" />
  </g>
</svg>
